<svg width="25" height="24" viewBox="0 0 25 24" fill="none" xmlns="http://www.w3.org/2000/svg">
<path d="M11.3 4H4.29999C3.76955 4 3.26085 4.21071 2.88577 4.58579C2.5107 4.96086 2.29999 5.46957 2.29999 6V20C2.29999 20.5304 2.5107 21.0391 2.88577 21.4142C3.26085 21.7893 3.76955 22 4.29999 22H18.3C18.8304 22 19.3391 21.7893 19.7142 21.4142C20.0893 21.0391 20.3 20.5304 20.3 20V13" stroke="black" stroke-width="2" stroke-linecap="round" stroke-linejoin="round"/>
<path d="M18.8 2.50023C19.1978 2.1024 19.7374 1.87891 20.3 1.87891C20.8626 1.87891 21.4022 2.1024 21.8 2.50023C22.1978 2.89805 22.4213 3.43762 22.4213 4.00023C22.4213 4.56284 22.1978 5.1024 21.8 5.50023L12.3 15.0002L8.29999 16.0002L9.29999 12.0002L18.8 2.50023Z" stroke="black" stroke-width="2" stroke-linecap="round" stroke-linejoin="round"/>
</svg>
