<svg width="25" height="24" viewBox="0 0 25 24" fill="none" xmlns="http://www.w3.org/2000/svg">
<g clip-path="url(#clip0_134_1879)">
<path d="M18.24 17.94C16.5306 19.243 14.4491 19.9649 12.3 20C5.29999 20 1.29999 12 1.29999 12C2.54388 9.68192 4.26912 7.65663 6.35999 6.06003M10.2 4.24002C10.8883 4.0789 11.5931 3.99836 12.3 4.00003C19.3 4.00003 23.3 12 23.3 12C22.693 13.1356 21.969 14.2048 21.14 15.19M14.42 14.12C14.1453 14.4148 13.8141 14.6512 13.4461 14.8151C13.0781 14.9791 12.6809 15.0673 12.2781 15.0744C11.8753 15.0815 11.4752 15.0074 11.1016 14.8565C10.728 14.7056 10.3887 14.4811 10.1038 14.1962C9.81896 13.9113 9.59438 13.572 9.4435 13.1984C9.29261 12.8249 9.21851 12.4247 9.22562 12.0219C9.23273 11.6191 9.3209 11.2219 9.48486 10.8539C9.64883 10.4859 9.88524 10.1547 10.18 9.88003" stroke="black" stroke-width="2" stroke-linecap="round" stroke-linejoin="round"/>
<path d="M1.29999 1L23.3 23" stroke="black" stroke-width="2" stroke-linecap="round" stroke-linejoin="round"/>
</g>
<defs>
<clipPath id="clip0_134_1879">
<rect width="24" height="24" fill="white" transform="translate(0.299988)"/>
</clipPath>
</defs>
</svg>
