<svg width="25" height="24" viewBox="0 0 25 24" fill="none" xmlns="http://www.w3.org/2000/svg">
<path d="M19.3 3H5.29999C4.19542 3 3.29999 3.89543 3.29999 5V19C3.29999 20.1046 4.19542 21 5.29999 21H19.3C20.4046 21 21.3 20.1046 21.3 19V5C21.3 3.89543 20.4046 3 19.3 3Z" stroke="black" stroke-width="2" stroke-linecap="round" stroke-linejoin="round"/>
<path d="M8.79999 10C9.62841 10 10.3 9.32843 10.3 8.5C10.3 7.67157 9.62841 7 8.79999 7C7.97156 7 7.29999 7.67157 7.29999 8.5C7.29999 9.32843 7.97156 10 8.79999 10Z" stroke="black" stroke-width="2" stroke-linecap="round" stroke-linejoin="round"/>
<path d="M21.3 15L16.3 10L5.29999 21" stroke="black" stroke-width="2" stroke-linecap="round" stroke-linejoin="round"/>
</svg>
