<svg width="25" height="25" viewBox="0 0 25 25" fill="none" xmlns="http://www.w3.org/2000/svg">
<path d="M21.6852 13.0012C21.5279 14.7034 20.8891 16.3256 19.8435 17.678C18.7978 19.0304 17.3887 20.057 15.7809 20.6377C14.1731 21.2185 12.4332 21.3293 10.7647 20.9573C9.09622 20.5852 7.5682 19.7457 6.35943 18.537C5.15066 17.3282 4.31114 15.8002 3.93911 14.1317C3.56708 12.4632 3.67792 10.7233 4.25866 9.11548C4.83941 7.50769 5.86603 6.09855 7.21842 5.05293C8.5708 4.00732 10.193 3.36849 11.8952 3.21118C10.8986 4.55945 10.4191 6.22063 10.5437 7.8926C10.6684 9.56456 11.3891 11.1362 12.5746 12.3218C13.7601 13.5073 15.3318 14.228 17.0038 14.3526C18.6758 14.4773 20.3369 13.9978 21.6852 13.0012Z" stroke="black" stroke-width="2" stroke-linecap="round" stroke-linejoin="round"/>
</svg>
