<svg width="25" height="25" viewBox="0 0 25 25" fill="none" xmlns="http://www.w3.org/2000/svg">
<path d="M21.2298 16.4189C20.5936 17.9234 19.5986 19.2491 18.3317 20.2802C17.0648 21.3113 15.5646 22.0163 13.9622 22.3337C12.3599 22.651 10.7042 22.571 9.13993 22.1007C7.57565 21.6303 6.15041 20.784 4.9888 19.6355C3.8272 18.4871 2.9646 17.0716 2.47642 15.5128C1.98824 13.954 1.88934 12.2994 2.18838 10.6935C2.48742 9.08767 3.17528 7.57951 4.19183 6.30092C5.20838 5.02232 6.52266 4.0122 8.01978 3.35889" stroke="black" stroke-width="2" stroke-linecap="round" stroke-linejoin="round"/>
<path d="M22.0198 12.5288C22.0198 11.2156 21.7611 9.91523 21.2586 8.70197C20.756 7.48872 20.0194 6.38633 19.0908 5.45774C18.1623 4.52915 17.0599 3.79256 15.8466 3.29001C14.6334 2.78747 13.333 2.52881 12.0198 2.52881V12.5288H22.0198Z" stroke="black" stroke-width="2" stroke-linecap="round" stroke-linejoin="round"/>
</svg>
