<svg width="25" height="24" viewBox="0 0 25 24" fill="none" xmlns="http://www.w3.org/2000/svg">
<g clip-path="url(#clip0_134_1836)">
<path d="M12.3 15C13.9568 15 15.3 13.6569 15.3 12C15.3 10.3431 13.9568 9 12.3 9C10.6431 9 9.29999 10.3431 9.29999 12C9.29999 13.6569 10.6431 15 12.3 15Z" stroke="black" stroke-width="2" stroke-linecap="round" stroke-linejoin="round"/>
<path d="M19.7 15C19.5669 15.3016 19.5272 15.6362 19.586 15.9606C19.6448 16.285 19.7995 16.5843 20.03 16.82L20.09 16.88C20.2759 17.0657 20.4235 17.2863 20.5241 17.5291C20.6248 17.7719 20.6766 18.0322 20.6766 18.295C20.6766 18.5578 20.6248 18.8181 20.5241 19.0609C20.4235 19.3037 20.2759 19.5243 20.09 19.71C19.9042 19.896 19.6837 20.0435 19.4409 20.1441C19.1981 20.2448 18.9378 20.2966 18.675 20.2966C18.4122 20.2966 18.1519 20.2448 17.9091 20.1441C17.6663 20.0435 17.4457 19.896 17.26 19.71L17.2 19.65C16.9643 19.4195 16.665 19.2648 16.3406 19.206C16.0162 19.1472 15.6816 19.1869 15.38 19.32C15.0842 19.4468 14.832 19.6572 14.6543 19.9255C14.4766 20.1938 14.3813 20.5082 14.38 20.83V21C14.38 21.5304 14.1693 22.0391 13.7942 22.4142C13.4191 22.7893 12.9104 23 12.38 23C11.8496 23 11.3408 22.7893 10.9658 22.4142C10.5907 22.0391 10.38 21.5304 10.38 21V20.91C10.3722 20.579 10.2651 20.258 10.0725 19.9887C9.87989 19.7194 9.61072 19.5143 9.29999 19.4C8.99837 19.2669 8.66379 19.2272 8.3394 19.286C8.015 19.3448 7.71567 19.4995 7.47999 19.73L7.41999 19.79C7.23424 19.976 7.01366 20.1235 6.77087 20.2241C6.52807 20.3248 6.26782 20.3766 6.00499 20.3766C5.74216 20.3766 5.4819 20.3248 5.23911 20.2241C4.99631 20.1235 4.77573 19.976 4.58999 19.79C4.40403 19.6043 4.25652 19.3837 4.15587 19.1409C4.05522 18.8981 4.00341 18.6378 4.00341 18.375C4.00341 18.1122 4.05522 17.8519 4.15587 17.6091C4.25652 17.3663 4.40403 17.1457 4.58999 16.96L4.64999 16.9C4.88052 16.6643 5.03517 16.365 5.09399 16.0406C5.15281 15.7162 5.1131 15.3816 4.97999 15.08C4.85322 14.7842 4.64274 14.532 4.37445 14.3543C4.10616 14.1766 3.79177 14.0813 3.46999 14.08H3.29999C2.76955 14.08 2.26085 13.8693 1.88577 13.4942C1.5107 13.1191 1.29999 12.6104 1.29999 12.08C1.29999 11.5496 1.5107 11.0409 1.88577 10.6658C2.26085 10.2907 2.76955 10.08 3.29999 10.08H3.38999C3.72098 10.0723 4.04199 9.96512 4.31129 9.77251C4.58058 9.5799 4.7857 9.31074 4.89999 9C5.0331 8.69838 5.07281 8.36381 5.01399 8.03941C4.95517 7.71502 4.80052 7.41568 4.56999 7.18L4.50999 7.12C4.32403 6.93425 4.17652 6.71368 4.07587 6.47088C3.97522 6.22808 3.92341 5.96783 3.92341 5.705C3.92341 5.44217 3.97522 5.18192 4.07587 4.93912C4.17652 4.69632 4.32403 4.47575 4.50999 4.29C4.69573 4.10405 4.91631 3.95653 5.15911 3.85588C5.4019 3.75523 5.66216 3.70343 5.92499 3.70343C6.18782 3.70343 6.44807 3.75523 6.69087 3.85588C6.93366 3.95653 7.15424 4.10405 7.33999 4.29L7.39999 4.35C7.63567 4.58054 7.935 4.73519 8.2594 4.794C8.58379 4.85282 8.91837 4.81312 9.21999 4.68H9.29999C9.59576 4.55324 9.848 4.34276 10.0257 4.07447C10.2034 3.80618 10.2987 3.49179 10.3 3.17V3C10.3 2.46957 10.5107 1.96086 10.8858 1.58579C11.2608 1.21071 11.7696 1 12.3 1C12.8304 1 13.3391 1.21071 13.7142 1.58579C14.0893 1.96086 14.3 2.46957 14.3 3V3.09C14.3013 3.41179 14.3966 3.72618 14.5743 3.99447C14.752 4.26276 15.0042 4.47324 15.3 4.6C15.6016 4.73312 15.9362 4.77282 16.2606 4.714C16.585 4.65519 16.8843 4.50054 17.12 4.27L17.18 4.21C17.3657 4.02405 17.5863 3.87653 17.8291 3.77588C18.0719 3.67523 18.3322 3.62343 18.595 3.62343C18.8578 3.62343 19.1181 3.67523 19.3609 3.77588C19.6037 3.87653 19.8242 4.02405 20.01 4.21C20.1959 4.39575 20.3435 4.61632 20.4441 4.85912C20.5448 5.10192 20.5966 5.36217 20.5966 5.625C20.5966 5.88783 20.5448 6.14808 20.4441 6.39088C20.3435 6.63368 20.1959 6.85425 20.01 7.04L19.95 7.1C19.7195 7.33568 19.5648 7.63502 19.506 7.95941C19.4472 8.28381 19.4869 8.61838 19.62 8.92V9C19.7468 9.29577 19.9572 9.54802 20.2255 9.72569C20.4938 9.90337 20.8082 9.99872 21.13 10H21.3C21.8304 10 22.3391 10.2107 22.7142 10.5858C23.0893 10.9609 23.3 11.4696 23.3 12C23.3 12.5304 23.0893 13.0391 22.7142 13.4142C22.3391 13.7893 21.8304 14 21.3 14H21.21C20.8882 14.0013 20.5738 14.0966 20.3055 14.2743C20.0372 14.452 19.8268 14.7042 19.7 15Z" stroke="black" stroke-width="2" stroke-linecap="round" stroke-linejoin="round"/>
</g>
<defs>
<clipPath id="clip0_134_1836">
<rect width="24" height="24" fill="white" transform="translate(0.299988)"/>
</clipPath>
</defs>
</svg>
