<?xml version="1.0" encoding="UTF-8"?><svg id="Layer_1" xmlns="http://www.w3.org/2000/svg" viewBox="0 0 100 100"><defs><style>.cls-1{fill:#707070;}</style></defs><path class="cls-1" d="M85.81,16.05H14.19c-3.41,0-6.19,3.26-6.19,7.27s2.78,7.27,6.19,7.27H85.81c3.41,0,6.19-3.26,6.19-7.27s-2.78-7.27-6.19-7.27Z"/><path class="cls-1" d="M14.19,58.39H58.96c3.41,0,6.19-3.26,6.19-7.29s-2.78-7.27-6.19-7.27H14.19c-3.41,0-6.19,3.26-6.19,7.29s2.78,7.27,6.19,7.27Z"/><path class="cls-1" d="M14.19,86.14h17.91c3.41,0,6.19-3.26,6.19-7.27s-2.78-7.27-6.19-7.27H14.19c-3.41,0-6.19,3.26-6.19,7.27s2.78,7.27,6.19,7.27Z"/></svg>